<mxfile host="app.diagrams.net" modified="2022-07-29T12:41:30.813Z" agent="5.0 (Windows NT 10.0; Win64; x64) AppleWebKit/537.36 (KHTML, like Gecko) Chrome/103.0.0.0 Safari/537.36" etag="ZI6tbCh7aMLRTTSr526I" version="20.2.2" type="github">
  <diagram id="UENfIVa6fNHEYjPwmaYS" name="Page-1">
    <mxGraphModel dx="3525" dy="1828" grid="1" gridSize="10" guides="1" tooltips="1" connect="1" arrows="1" fold="1" page="0" pageScale="1" pageWidth="850" pageHeight="1100" math="0" shadow="0">
      <root>
        <mxCell id="0" />
        <mxCell id="1" parent="0" />
        <mxCell id="OnZoAcpdOIPg12gYCpCq-1" value="" style="rounded=0;whiteSpace=wrap;html=1;fillColor=#f9f7ed;strokeColor=#36393d;" vertex="1" parent="1">
          <mxGeometry x="10" y="200" width="1410" height="590" as="geometry" />
        </mxCell>
        <mxCell id="OnZoAcpdOIPg12gYCpCq-2" value="" style="rounded=0;whiteSpace=wrap;html=1;fillColor=#f5f5f5;fontColor=#333333;strokeColor=#666666;" vertex="1" parent="1">
          <mxGeometry x="10" y="200" width="190" height="110" as="geometry" />
        </mxCell>
        <mxCell id="OnZoAcpdOIPg12gYCpCq-5" value="&lt;span style=&quot;font-size: 20px;&quot;&gt;Toys&lt;/span&gt;" style="rounded=0;whiteSpace=wrap;html=1;rotation=-90;fillColor=#d0cee2;strokeColor=#56517e;" vertex="1" parent="1">
          <mxGeometry x="-45" y="365" width="190" height="80" as="geometry" />
        </mxCell>
        <mxCell id="OnZoAcpdOIPg12gYCpCq-6" value="&lt;span style=&quot;font-size: 20px;&quot;&gt;Stationery&lt;/span&gt;" style="rounded=0;whiteSpace=wrap;html=1;rotation=-90;fillColor=#b1ddf0;strokeColor=#10739e;" vertex="1" parent="1">
          <mxGeometry x="-46.25" y="551.25" width="192.5" height="80" as="geometry" />
        </mxCell>
        <mxCell id="OnZoAcpdOIPg12gYCpCq-7" value="&lt;span style=&quot;font-size: 20px;&quot;&gt;Appliances&lt;/span&gt;" style="rounded=0;whiteSpace=wrap;html=1;fillColor=#fad7ac;strokeColor=#b46504;" vertex="1" parent="1">
          <mxGeometry x="10" y="680" width="190" height="110" as="geometry" />
        </mxCell>
        <mxCell id="OnZoAcpdOIPg12gYCpCq-8" value="&lt;span style=&quot;font-size: 20px;&quot;&gt;Men&#39;s Ware&lt;/span&gt;" style="rounded=0;whiteSpace=wrap;html=1;fillColor=#eeeeee;strokeColor=#36393d;" vertex="1" parent="1">
          <mxGeometry x="200" y="680" width="450" height="110" as="geometry" />
        </mxCell>
        <mxCell id="OnZoAcpdOIPg12gYCpCq-9" value="&lt;span style=&quot;font-size: 20px;&quot;&gt;Men&#39;s Shoe&lt;/span&gt;" style="rounded=0;whiteSpace=wrap;html=1;fillColor=#eeeeee;strokeColor=#36393d;" vertex="1" parent="1">
          <mxGeometry x="650" y="680" width="360" height="110" as="geometry" />
        </mxCell>
        <mxCell id="OnZoAcpdOIPg12gYCpCq-10" value="" style="shape=mxgraph.signs.travel.stairs;html=1;pointerEvents=1;fillColor=#000000;strokeColor=none;verticalLabelPosition=bottom;verticalAlign=top;align=center;" vertex="1" parent="1">
          <mxGeometry x="1260" y="670" width="160" height="120" as="geometry" />
        </mxCell>
        <mxCell id="OnZoAcpdOIPg12gYCpCq-12" value="&lt;font color=&quot;#333333&quot;&gt;&lt;span style=&quot;font-size: 20px; background-color: rgb(249, 247, 237);&quot;&gt;Elevator&lt;/span&gt;&lt;/font&gt;" style="shape=image;html=1;verticalAlign=top;verticalLabelPosition=bottom;labelBackgroundColor=#ffffff;imageAspect=0;aspect=fixed;image=https://cdn4.iconfinder.com/data/icons/aiga-symbol-signs/488/aiga_elevator-128.png" vertex="1" parent="1">
          <mxGeometry x="1292" y="200" width="128" height="128" as="geometry" />
        </mxCell>
        <mxCell id="OnZoAcpdOIPg12gYCpCq-13" value="&lt;span style=&quot;font-size: 20px;&quot;&gt;Check Out&lt;/span&gt;" style="rounded=0;whiteSpace=wrap;html=1;fillColor=#f5f5f5;strokeColor=#666666;fontColor=#333333;" vertex="1" parent="1">
          <mxGeometry x="500" y="200" width="450" height="110" as="geometry" />
        </mxCell>
        <mxCell id="OnZoAcpdOIPg12gYCpCq-14" value="&lt;span style=&quot;font-size: 20px;&quot;&gt;ATM Booth&lt;/span&gt;" style="rounded=0;whiteSpace=wrap;html=1;fillColor=#e1d5e7;strokeColor=#9673a6;" vertex="1" parent="1">
          <mxGeometry x="330" y="200" width="170" height="110" as="geometry" />
        </mxCell>
        <mxCell id="OnZoAcpdOIPg12gYCpCq-15" value="&lt;span style=&quot;font-size: 20px;&quot;&gt;ATM Booth&lt;/span&gt;" style="rounded=0;whiteSpace=wrap;html=1;fillColor=#e1d5e7;strokeColor=#9673a6;" vertex="1" parent="1">
          <mxGeometry x="950" y="200" width="170" height="110" as="geometry" />
        </mxCell>
        <mxCell id="OnZoAcpdOIPg12gYCpCq-16" value="&lt;font style=&quot;font-size: 20px;&quot;&gt;Food Stalls&lt;/font&gt;" style="rounded=0;whiteSpace=wrap;html=1;fillColor=#cce5ff;strokeColor=#36393d;" vertex="1" parent="1">
          <mxGeometry x="280" y="420" width="830" height="110" as="geometry" />
        </mxCell>
        <mxCell id="OnZoAcpdOIPg12gYCpCq-17" value="" style="endArrow=none;html=1;rounded=0;fontSize=16;strokeWidth=4;entryX=0.25;entryY=0;entryDx=0;entryDy=0;exitX=0;exitY=1;exitDx=0;exitDy=0;exitPerimeter=0;" edge="1" parent="1" source="OnZoAcpdOIPg12gYCpCq-10" target="OnZoAcpdOIPg12gYCpCq-12">
          <mxGeometry width="50" height="50" relative="1" as="geometry">
            <mxPoint x="160" y="900" as="sourcePoint" />
            <mxPoint x="210" y="850" as="targetPoint" />
            <Array as="points">
              <mxPoint x="1010" y="790" />
              <mxPoint x="1010" y="680" />
              <mxPoint x="90" y="680" />
              <mxPoint x="90" y="310" />
              <mxPoint x="200" y="310" />
              <mxPoint x="200" y="200" />
              <mxPoint x="330" y="200" />
              <mxPoint x="330" y="310" />
              <mxPoint x="1120" y="310" />
              <mxPoint x="1120" y="200" />
            </Array>
          </mxGeometry>
        </mxCell>
        <mxCell id="OnZoAcpdOIPg12gYCpCq-18" value="" style="endArrow=none;html=1;rounded=0;fontSize=16;strokeWidth=4;entryX=0;entryY=0;entryDx=0;entryDy=0;exitX=0;exitY=0;exitDx=0;exitDy=0;" edge="1" parent="1" source="OnZoAcpdOIPg12gYCpCq-16" target="OnZoAcpdOIPg12gYCpCq-16">
          <mxGeometry width="50" height="50" relative="1" as="geometry">
            <mxPoint x="500" y="960" as="sourcePoint" />
            <mxPoint x="550" y="910" as="targetPoint" />
            <Array as="points">
              <mxPoint x="280" y="530" />
              <mxPoint x="1110" y="530" />
              <mxPoint x="1110" y="420" />
            </Array>
          </mxGeometry>
        </mxCell>
        <mxCell id="OnZoAcpdOIPg12gYCpCq-19" value="" style="shape=image;html=1;verticalAlign=top;verticalLabelPosition=bottom;labelBackgroundColor=#ffffff;imageAspect=0;aspect=fixed;image=https://cdn2.iconfinder.com/data/icons/household-things/64/house_toilet-128.png;fontSize=20;" vertex="1" parent="1">
          <mxGeometry x="10" y="210" width="70" height="70" as="geometry" />
        </mxCell>
        <mxCell id="OnZoAcpdOIPg12gYCpCq-20" value="" style="endArrow=none;dashed=1;html=1;dashPattern=1 3;strokeWidth=3;rounded=0;fontSize=20;entryX=1;entryY=0;entryDx=0;entryDy=0;exitX=1;exitY=1;exitDx=0;exitDy=0;" edge="1" parent="1" source="OnZoAcpdOIPg12gYCpCq-31" target="OnZoAcpdOIPg12gYCpCq-27">
          <mxGeometry width="50" height="50" relative="1" as="geometry">
            <mxPoint x="180" y="440" as="sourcePoint" />
            <mxPoint x="230" y="390" as="targetPoint" />
          </mxGeometry>
        </mxCell>
        <mxCell id="OnZoAcpdOIPg12gYCpCq-21" value="" style="shape=image;html=1;verticalAlign=top;verticalLabelPosition=bottom;labelBackgroundColor=#ffffff;imageAspect=0;aspect=fixed;image=https://cdn2.iconfinder.com/data/icons/vivid/48/close-128.png;fontSize=20;" vertex="1" parent="1">
          <mxGeometry x="-630" y="-60" width="95" height="95" as="geometry" />
        </mxCell>
        <mxCell id="OnZoAcpdOIPg12gYCpCq-22" value="" style="shape=image;html=1;verticalAlign=top;verticalLabelPosition=bottom;labelBackgroundColor=#ffffff;imageAspect=0;aspect=fixed;image=https://cdn2.iconfinder.com/data/icons/vivid/48/close-128.png;fontSize=20;" vertex="1" parent="1">
          <mxGeometry x="-630" y="10" width="95" height="95" as="geometry" />
        </mxCell>
        <mxCell id="OnZoAcpdOIPg12gYCpCq-23" value="" style="shape=image;html=1;verticalAlign=top;verticalLabelPosition=bottom;labelBackgroundColor=#ffffff;imageAspect=0;aspect=fixed;image=https://cdn2.iconfinder.com/data/icons/vivid/48/close-128.png;fontSize=20;" vertex="1" parent="1">
          <mxGeometry x="-630" y="70" width="95" height="95" as="geometry" />
        </mxCell>
        <mxCell id="OnZoAcpdOIPg12gYCpCq-24" value="" style="shape=image;html=1;verticalAlign=top;verticalLabelPosition=bottom;labelBackgroundColor=#ffffff;imageAspect=0;aspect=fixed;image=https://cdn2.iconfinder.com/data/icons/vivid/48/close-128.png;fontSize=20;" vertex="1" parent="1">
          <mxGeometry x="-630" y="143.75" width="95" height="95" as="geometry" />
        </mxCell>
        <mxCell id="OnZoAcpdOIPg12gYCpCq-25" value="" style="shape=image;html=1;verticalAlign=top;verticalLabelPosition=bottom;labelBackgroundColor=#ffffff;imageAspect=0;aspect=fixed;image=https://cdn2.iconfinder.com/data/icons/vivid/48/close-128.png;fontSize=20;" vertex="1" parent="1">
          <mxGeometry x="-630" y="210" width="95" height="95" as="geometry" />
        </mxCell>
        <mxCell id="OnZoAcpdOIPg12gYCpCq-27" value="" style="shape=image;html=1;verticalAlign=top;verticalLabelPosition=bottom;labelBackgroundColor=#ffffff;imageAspect=0;aspect=fixed;image=https://cdn2.iconfinder.com/data/icons/vivid/48/close-128.png;fontSize=20;" vertex="1" parent="1">
          <mxGeometry x="90" y="315" width="95" height="95" as="geometry" />
        </mxCell>
        <mxCell id="OnZoAcpdOIPg12gYCpCq-28" value="" style="shape=image;html=1;verticalAlign=top;verticalLabelPosition=bottom;labelBackgroundColor=#ffffff;imageAspect=0;aspect=fixed;image=https://cdn2.iconfinder.com/data/icons/vivid/48/close-128.png;fontSize=20;" vertex="1" parent="1">
          <mxGeometry x="90" y="385" width="95" height="95" as="geometry" />
        </mxCell>
        <mxCell id="OnZoAcpdOIPg12gYCpCq-29" value="" style="shape=image;html=1;verticalAlign=top;verticalLabelPosition=bottom;labelBackgroundColor=#ffffff;imageAspect=0;aspect=fixed;image=https://cdn2.iconfinder.com/data/icons/vivid/48/close-128.png;fontSize=20;" vertex="1" parent="1">
          <mxGeometry x="90" y="445" width="95" height="95" as="geometry" />
        </mxCell>
        <mxCell id="OnZoAcpdOIPg12gYCpCq-30" value="" style="shape=image;html=1;verticalAlign=top;verticalLabelPosition=bottom;labelBackgroundColor=#ffffff;imageAspect=0;aspect=fixed;image=https://cdn2.iconfinder.com/data/icons/vivid/48/close-128.png;fontSize=20;" vertex="1" parent="1">
          <mxGeometry x="90" y="518.75" width="95" height="95" as="geometry" />
        </mxCell>
        <mxCell id="OnZoAcpdOIPg12gYCpCq-31" value="" style="shape=image;html=1;verticalAlign=top;verticalLabelPosition=bottom;labelBackgroundColor=#ffffff;imageAspect=0;aspect=fixed;image=https://cdn2.iconfinder.com/data/icons/vivid/48/close-128.png;fontSize=20;" vertex="1" parent="1">
          <mxGeometry x="90" y="585" width="95" height="95" as="geometry" />
        </mxCell>
        <mxCell id="OnZoAcpdOIPg12gYCpCq-33" value="" style="endArrow=none;dashed=1;html=1;dashPattern=1 3;strokeWidth=3;rounded=0;fontSize=20;entryX=-0.017;entryY=0.191;entryDx=0;entryDy=0;exitX=1.008;exitY=0.183;exitDx=0;exitDy=0;entryPerimeter=0;exitPerimeter=0;" edge="1" parent="1" source="OnZoAcpdOIPg12gYCpCq-28" target="OnZoAcpdOIPg12gYCpCq-28">
          <mxGeometry width="50" height="50" relative="1" as="geometry">
            <mxPoint x="195" y="690" as="sourcePoint" />
            <mxPoint x="195" y="325.0000000000001" as="targetPoint" />
          </mxGeometry>
        </mxCell>
        <mxCell id="OnZoAcpdOIPg12gYCpCq-34" value="" style="endArrow=none;dashed=1;html=1;dashPattern=1 3;strokeWidth=3;rounded=0;fontSize=20;entryX=-0.009;entryY=0.18;entryDx=0;entryDy=0;exitX=1;exitY=0.164;exitDx=0;exitDy=0;entryPerimeter=0;exitPerimeter=0;" edge="1" parent="1" source="OnZoAcpdOIPg12gYCpCq-29" target="OnZoAcpdOIPg12gYCpCq-29">
          <mxGeometry width="50" height="50" relative="1" as="geometry">
            <mxPoint x="195.76" y="412.385" as="sourcePoint" />
            <mxPoint x="98.38499999999999" y="413.1450000000001" as="targetPoint" />
          </mxGeometry>
        </mxCell>
        <mxCell id="OnZoAcpdOIPg12gYCpCq-35" value="" style="endArrow=none;dashed=1;html=1;dashPattern=1 3;strokeWidth=3;rounded=0;fontSize=20;entryX=0.015;entryY=0.13;entryDx=0;entryDy=0;entryPerimeter=0;" edge="1" parent="1" target="OnZoAcpdOIPg12gYCpCq-30">
          <mxGeometry width="50" height="50" relative="1" as="geometry">
            <mxPoint x="180" y="531" as="sourcePoint" />
            <mxPoint x="99.14499999999975" y="472.10000000000014" as="targetPoint" />
          </mxGeometry>
        </mxCell>
        <mxCell id="OnZoAcpdOIPg12gYCpCq-36" value="" style="endArrow=none;dashed=1;html=1;dashPattern=1 3;strokeWidth=3;rounded=0;fontSize=20;entryX=0;entryY=0.158;entryDx=0;entryDy=0;entryPerimeter=0;" edge="1" parent="1" target="OnZoAcpdOIPg12gYCpCq-31">
          <mxGeometry width="50" height="50" relative="1" as="geometry">
            <mxPoint x="180" y="600" as="sourcePoint" />
            <mxPoint x="101.42499999999995" y="541.1000000000001" as="targetPoint" />
          </mxGeometry>
        </mxCell>
        <mxCell id="OnZoAcpdOIPg12gYCpCq-37" value="" style="shape=image;html=1;verticalAlign=top;verticalLabelPosition=bottom;labelBackgroundColor=#ffffff;imageAspect=0;aspect=fixed;image=https://cdn2.iconfinder.com/data/icons/vivid/48/close-128.png;fontSize=20;" vertex="1" parent="1">
          <mxGeometry x="10" y="635" width="55" height="55" as="geometry" />
        </mxCell>
        <mxCell id="OnZoAcpdOIPg12gYCpCq-38" value="&lt;span style=&quot;background-color: rgb(255, 255, 255);&quot;&gt;Region 1&lt;/span&gt;" style="text;html=1;strokeColor=none;fillColor=none;align=center;verticalAlign=middle;whiteSpace=wrap;rounded=0;labelBackgroundColor=#F9F7ED;fontSize=20;" vertex="1" parent="1">
          <mxGeometry x="-156.25" y="647.5" width="110" height="30" as="geometry" />
        </mxCell>
        <mxCell id="OnZoAcpdOIPg12gYCpCq-39" value="" style="endArrow=classic;html=1;rounded=0;fontSize=20;strokeWidth=1;entryX=1;entryY=0.5;entryDx=0;entryDy=0;" edge="1" parent="1" source="OnZoAcpdOIPg12gYCpCq-37" target="OnZoAcpdOIPg12gYCpCq-38">
          <mxGeometry width="50" height="50" relative="1" as="geometry">
            <mxPoint x="-110" y="820" as="sourcePoint" />
            <mxPoint x="-60" y="770" as="targetPoint" />
          </mxGeometry>
        </mxCell>
        <mxCell id="OnZoAcpdOIPg12gYCpCq-40" value="" style="rounded=0;whiteSpace=wrap;html=1;fillColor=#f9f7ed;strokeColor=#36393d;" vertex="1" parent="1">
          <mxGeometry x="10" y="860" width="1410" height="590" as="geometry" />
        </mxCell>
        <mxCell id="OnZoAcpdOIPg12gYCpCq-41" value="" style="rounded=0;whiteSpace=wrap;html=1;fillColor=#f5f5f5;fontColor=#333333;strokeColor=#666666;" vertex="1" parent="1">
          <mxGeometry x="10" y="860" width="190" height="110" as="geometry" />
        </mxCell>
        <mxCell id="OnZoAcpdOIPg12gYCpCq-42" value="&lt;span style=&quot;font-size: 20px;&quot;&gt;Toys&lt;/span&gt;" style="rounded=0;whiteSpace=wrap;html=1;rotation=-90;fillColor=#d0cee2;strokeColor=#56517e;" vertex="1" parent="1">
          <mxGeometry x="-45" y="1025" width="190" height="80" as="geometry" />
        </mxCell>
        <mxCell id="OnZoAcpdOIPg12gYCpCq-43" value="&lt;span style=&quot;font-size: 20px;&quot;&gt;Stationery&lt;/span&gt;" style="rounded=0;whiteSpace=wrap;html=1;rotation=-90;fillColor=#b1ddf0;strokeColor=#10739e;" vertex="1" parent="1">
          <mxGeometry x="-46.25" y="1211.25" width="192.5" height="80" as="geometry" />
        </mxCell>
        <mxCell id="OnZoAcpdOIPg12gYCpCq-44" value="&lt;span style=&quot;font-size: 20px;&quot;&gt;Appliances&lt;/span&gt;" style="rounded=0;whiteSpace=wrap;html=1;fillColor=#fad7ac;strokeColor=#b46504;" vertex="1" parent="1">
          <mxGeometry x="10" y="1340" width="190" height="110" as="geometry" />
        </mxCell>
        <mxCell id="OnZoAcpdOIPg12gYCpCq-45" value="&lt;span style=&quot;font-size: 20px;&quot;&gt;Woman&#39;s Ware&lt;/span&gt;" style="rounded=0;whiteSpace=wrap;html=1;fillColor=#eeeeee;strokeColor=#36393d;" vertex="1" parent="1">
          <mxGeometry x="200" y="1340" width="450" height="110" as="geometry" />
        </mxCell>
        <mxCell id="OnZoAcpdOIPg12gYCpCq-46" value="&lt;span style=&quot;font-size: 20px;&quot;&gt;Woman&#39;s Shoes&lt;/span&gt;" style="rounded=0;whiteSpace=wrap;html=1;fillColor=#eeeeee;strokeColor=#36393d;" vertex="1" parent="1">
          <mxGeometry x="650" y="1340" width="360" height="110" as="geometry" />
        </mxCell>
        <mxCell id="OnZoAcpdOIPg12gYCpCq-47" value="" style="shape=mxgraph.signs.travel.stairs;html=1;pointerEvents=1;fillColor=#000000;strokeColor=none;verticalLabelPosition=bottom;verticalAlign=top;align=center;" vertex="1" parent="1">
          <mxGeometry x="1260" y="1330" width="160" height="120" as="geometry" />
        </mxCell>
        <mxCell id="OnZoAcpdOIPg12gYCpCq-48" value="&lt;font color=&quot;#333333&quot;&gt;&lt;span style=&quot;font-size: 20px; background-color: rgb(249, 247, 237);&quot;&gt;Elevator&lt;/span&gt;&lt;/font&gt;" style="shape=image;html=1;verticalAlign=top;verticalLabelPosition=bottom;labelBackgroundColor=#ffffff;imageAspect=0;aspect=fixed;image=https://cdn4.iconfinder.com/data/icons/aiga-symbol-signs/488/aiga_elevator-128.png" vertex="1" parent="1">
          <mxGeometry x="1292" y="860" width="128" height="128" as="geometry" />
        </mxCell>
        <mxCell id="OnZoAcpdOIPg12gYCpCq-49" value="&lt;span style=&quot;font-size: 20px;&quot;&gt;Check Out&lt;/span&gt;" style="rounded=0;whiteSpace=wrap;html=1;fillColor=#f5f5f5;strokeColor=#666666;fontColor=#333333;" vertex="1" parent="1">
          <mxGeometry x="500" y="860" width="450" height="110" as="geometry" />
        </mxCell>
        <mxCell id="OnZoAcpdOIPg12gYCpCq-50" value="&lt;span style=&quot;font-size: 20px;&quot;&gt;ATM Booth&lt;/span&gt;" style="rounded=0;whiteSpace=wrap;html=1;fillColor=#e1d5e7;strokeColor=#9673a6;" vertex="1" parent="1">
          <mxGeometry x="330" y="860" width="170" height="110" as="geometry" />
        </mxCell>
        <mxCell id="OnZoAcpdOIPg12gYCpCq-51" value="&lt;span style=&quot;font-size: 20px;&quot;&gt;ATM Booth&lt;/span&gt;" style="rounded=0;whiteSpace=wrap;html=1;fillColor=#e1d5e7;strokeColor=#9673a6;" vertex="1" parent="1">
          <mxGeometry x="950" y="860" width="170" height="110" as="geometry" />
        </mxCell>
        <mxCell id="OnZoAcpdOIPg12gYCpCq-52" value="&lt;font style=&quot;font-size: 20px;&quot;&gt;Food Stalls&lt;/font&gt;" style="rounded=0;whiteSpace=wrap;html=1;fillColor=#cce5ff;strokeColor=#36393d;" vertex="1" parent="1">
          <mxGeometry x="280" y="1080" width="830" height="110" as="geometry" />
        </mxCell>
        <mxCell id="OnZoAcpdOIPg12gYCpCq-53" value="" style="endArrow=none;html=1;rounded=0;fontSize=16;strokeWidth=4;entryX=0.25;entryY=0;entryDx=0;entryDy=0;exitX=0;exitY=1;exitDx=0;exitDy=0;exitPerimeter=0;" edge="1" parent="1" source="OnZoAcpdOIPg12gYCpCq-47" target="OnZoAcpdOIPg12gYCpCq-48">
          <mxGeometry width="50" height="50" relative="1" as="geometry">
            <mxPoint x="160" y="1560" as="sourcePoint" />
            <mxPoint x="210" y="1510" as="targetPoint" />
            <Array as="points">
              <mxPoint x="1010" y="1450" />
              <mxPoint x="1010" y="1340" />
              <mxPoint x="90" y="1340" />
              <mxPoint x="90" y="970" />
              <mxPoint x="200" y="970" />
              <mxPoint x="200" y="860" />
              <mxPoint x="330" y="860" />
              <mxPoint x="330" y="970" />
              <mxPoint x="1120" y="970" />
              <mxPoint x="1120" y="860" />
            </Array>
          </mxGeometry>
        </mxCell>
        <mxCell id="OnZoAcpdOIPg12gYCpCq-54" value="" style="endArrow=none;html=1;rounded=0;fontSize=16;strokeWidth=4;entryX=0;entryY=0;entryDx=0;entryDy=0;exitX=0;exitY=0;exitDx=0;exitDy=0;" edge="1" parent="1" source="OnZoAcpdOIPg12gYCpCq-52" target="OnZoAcpdOIPg12gYCpCq-52">
          <mxGeometry width="50" height="50" relative="1" as="geometry">
            <mxPoint x="500" y="1620" as="sourcePoint" />
            <mxPoint x="550" y="1570" as="targetPoint" />
            <Array as="points">
              <mxPoint x="280" y="1190" />
              <mxPoint x="1110" y="1190" />
              <mxPoint x="1110" y="1080" />
            </Array>
          </mxGeometry>
        </mxCell>
        <mxCell id="OnZoAcpdOIPg12gYCpCq-55" value="" style="shape=image;html=1;verticalAlign=top;verticalLabelPosition=bottom;labelBackgroundColor=#ffffff;imageAspect=0;aspect=fixed;image=https://cdn2.iconfinder.com/data/icons/household-things/64/house_toilet-128.png;fontSize=20;" vertex="1" parent="1">
          <mxGeometry x="10" y="870" width="70" height="70" as="geometry" />
        </mxCell>
        <mxCell id="OnZoAcpdOIPg12gYCpCq-56" value="" style="endArrow=none;dashed=1;html=1;dashPattern=1 3;strokeWidth=3;rounded=0;fontSize=20;entryX=1;entryY=0;entryDx=0;entryDy=0;exitX=1;exitY=1;exitDx=0;exitDy=0;" edge="1" parent="1" source="OnZoAcpdOIPg12gYCpCq-61" target="OnZoAcpdOIPg12gYCpCq-57">
          <mxGeometry width="50" height="50" relative="1" as="geometry">
            <mxPoint x="180" y="1100" as="sourcePoint" />
            <mxPoint x="230" y="1050" as="targetPoint" />
          </mxGeometry>
        </mxCell>
        <mxCell id="OnZoAcpdOIPg12gYCpCq-57" value="" style="shape=image;html=1;verticalAlign=top;verticalLabelPosition=bottom;labelBackgroundColor=#ffffff;imageAspect=0;aspect=fixed;image=https://cdn2.iconfinder.com/data/icons/vivid/48/close-128.png;fontSize=20;" vertex="1" parent="1">
          <mxGeometry x="90" y="975" width="95" height="95" as="geometry" />
        </mxCell>
        <mxCell id="OnZoAcpdOIPg12gYCpCq-58" value="" style="shape=image;html=1;verticalAlign=top;verticalLabelPosition=bottom;labelBackgroundColor=#ffffff;imageAspect=0;aspect=fixed;image=https://cdn2.iconfinder.com/data/icons/vivid/48/close-128.png;fontSize=20;" vertex="1" parent="1">
          <mxGeometry x="90" y="1045" width="95" height="95" as="geometry" />
        </mxCell>
        <mxCell id="OnZoAcpdOIPg12gYCpCq-59" value="" style="shape=image;html=1;verticalAlign=top;verticalLabelPosition=bottom;labelBackgroundColor=#ffffff;imageAspect=0;aspect=fixed;image=https://cdn2.iconfinder.com/data/icons/vivid/48/close-128.png;fontSize=20;" vertex="1" parent="1">
          <mxGeometry x="90" y="1105" width="95" height="95" as="geometry" />
        </mxCell>
        <mxCell id="OnZoAcpdOIPg12gYCpCq-60" value="" style="shape=image;html=1;verticalAlign=top;verticalLabelPosition=bottom;labelBackgroundColor=#ffffff;imageAspect=0;aspect=fixed;image=https://cdn2.iconfinder.com/data/icons/vivid/48/close-128.png;fontSize=20;" vertex="1" parent="1">
          <mxGeometry x="90" y="1178.75" width="95" height="95" as="geometry" />
        </mxCell>
        <mxCell id="OnZoAcpdOIPg12gYCpCq-61" value="" style="shape=image;html=1;verticalAlign=top;verticalLabelPosition=bottom;labelBackgroundColor=#ffffff;imageAspect=0;aspect=fixed;image=https://cdn2.iconfinder.com/data/icons/vivid/48/close-128.png;fontSize=20;" vertex="1" parent="1">
          <mxGeometry x="90" y="1245" width="95" height="95" as="geometry" />
        </mxCell>
        <mxCell id="OnZoAcpdOIPg12gYCpCq-62" value="" style="endArrow=none;dashed=1;html=1;dashPattern=1 3;strokeWidth=3;rounded=0;fontSize=20;entryX=-0.017;entryY=0.191;entryDx=0;entryDy=0;exitX=1.008;exitY=0.183;exitDx=0;exitDy=0;entryPerimeter=0;exitPerimeter=0;" edge="1" parent="1" source="OnZoAcpdOIPg12gYCpCq-58" target="OnZoAcpdOIPg12gYCpCq-58">
          <mxGeometry width="50" height="50" relative="1" as="geometry">
            <mxPoint x="195" y="1350" as="sourcePoint" />
            <mxPoint x="195" y="985.0000000000001" as="targetPoint" />
          </mxGeometry>
        </mxCell>
        <mxCell id="OnZoAcpdOIPg12gYCpCq-63" value="" style="endArrow=none;dashed=1;html=1;dashPattern=1 3;strokeWidth=3;rounded=0;fontSize=20;entryX=-0.009;entryY=0.18;entryDx=0;entryDy=0;exitX=1;exitY=0.164;exitDx=0;exitDy=0;entryPerimeter=0;exitPerimeter=0;" edge="1" parent="1" source="OnZoAcpdOIPg12gYCpCq-59" target="OnZoAcpdOIPg12gYCpCq-59">
          <mxGeometry width="50" height="50" relative="1" as="geometry">
            <mxPoint x="195.76" y="1072.385" as="sourcePoint" />
            <mxPoint x="98.38499999999999" y="1073.145" as="targetPoint" />
          </mxGeometry>
        </mxCell>
        <mxCell id="OnZoAcpdOIPg12gYCpCq-64" value="" style="endArrow=none;dashed=1;html=1;dashPattern=1 3;strokeWidth=3;rounded=0;fontSize=20;entryX=0.015;entryY=0.13;entryDx=0;entryDy=0;entryPerimeter=0;" edge="1" parent="1" target="OnZoAcpdOIPg12gYCpCq-60">
          <mxGeometry width="50" height="50" relative="1" as="geometry">
            <mxPoint x="180" y="1191" as="sourcePoint" />
            <mxPoint x="99.14499999999975" y="1132.1000000000001" as="targetPoint" />
          </mxGeometry>
        </mxCell>
        <mxCell id="OnZoAcpdOIPg12gYCpCq-65" value="" style="endArrow=none;dashed=1;html=1;dashPattern=1 3;strokeWidth=3;rounded=0;fontSize=20;entryX=0;entryY=0.158;entryDx=0;entryDy=0;entryPerimeter=0;" edge="1" parent="1" target="OnZoAcpdOIPg12gYCpCq-61">
          <mxGeometry width="50" height="50" relative="1" as="geometry">
            <mxPoint x="180" y="1260" as="sourcePoint" />
            <mxPoint x="101.42499999999995" y="1201.1000000000001" as="targetPoint" />
          </mxGeometry>
        </mxCell>
        <mxCell id="OnZoAcpdOIPg12gYCpCq-66" value="" style="shape=image;html=1;verticalAlign=top;verticalLabelPosition=bottom;labelBackgroundColor=#ffffff;imageAspect=0;aspect=fixed;image=https://cdn2.iconfinder.com/data/icons/vivid/48/close-128.png;fontSize=20;" vertex="1" parent="1">
          <mxGeometry x="10" y="1295" width="55" height="55" as="geometry" />
        </mxCell>
        <mxCell id="OnZoAcpdOIPg12gYCpCq-67" value="&lt;span style=&quot;background-color: rgb(255, 255, 255);&quot;&gt;Region 1&lt;/span&gt;" style="text;html=1;strokeColor=none;fillColor=none;align=center;verticalAlign=middle;whiteSpace=wrap;rounded=0;labelBackgroundColor=#F9F7ED;fontSize=20;" vertex="1" parent="1">
          <mxGeometry x="-156.25" y="1307.5" width="110" height="30" as="geometry" />
        </mxCell>
        <mxCell id="OnZoAcpdOIPg12gYCpCq-68" value="" style="endArrow=classic;html=1;rounded=0;fontSize=20;strokeWidth=1;entryX=1;entryY=0.5;entryDx=0;entryDy=0;" edge="1" parent="1" source="OnZoAcpdOIPg12gYCpCq-66" target="OnZoAcpdOIPg12gYCpCq-67">
          <mxGeometry width="50" height="50" relative="1" as="geometry">
            <mxPoint x="-110" y="1480" as="sourcePoint" />
            <mxPoint x="-60" y="1430" as="targetPoint" />
          </mxGeometry>
        </mxCell>
        <mxCell id="OnZoAcpdOIPg12gYCpCq-69" value="" style="endArrow=none;html=1;rounded=0;fontSize=20;strokeWidth=1;" edge="1" parent="1">
          <mxGeometry width="50" height="50" relative="1" as="geometry">
            <mxPoint x="380" y="1190" as="sourcePoint" />
            <mxPoint x="380" y="1080" as="targetPoint" />
          </mxGeometry>
        </mxCell>
        <mxCell id="OnZoAcpdOIPg12gYCpCq-70" value="" style="endArrow=none;html=1;rounded=0;fontSize=20;strokeWidth=1;" edge="1" parent="1">
          <mxGeometry width="50" height="50" relative="1" as="geometry">
            <mxPoint x="490" y="1190" as="sourcePoint" />
            <mxPoint x="490" y="1080" as="targetPoint" />
          </mxGeometry>
        </mxCell>
        <mxCell id="OnZoAcpdOIPg12gYCpCq-71" value="" style="endArrow=none;html=1;rounded=0;fontSize=20;strokeWidth=1;" edge="1" parent="1">
          <mxGeometry width="50" height="50" relative="1" as="geometry">
            <mxPoint x="980" y="1190" as="sourcePoint" />
            <mxPoint x="980" y="1080" as="targetPoint" />
          </mxGeometry>
        </mxCell>
        <mxCell id="OnZoAcpdOIPg12gYCpCq-72" value="" style="endArrow=none;html=1;rounded=0;fontSize=20;strokeWidth=1;" edge="1" parent="1">
          <mxGeometry width="50" height="50" relative="1" as="geometry">
            <mxPoint x="850" y="1190" as="sourcePoint" />
            <mxPoint x="850" y="1080" as="targetPoint" />
          </mxGeometry>
        </mxCell>
      </root>
    </mxGraphModel>
  </diagram>
</mxfile>
